<svg xmlns="http://www.w3.org/2000/svg" width="720" height="880" viewBox="0 0 720 880" role="img" aria-label="Smiling child photo reference">
  <defs>
    <linearGradient id="room" x1="0" x2="1" y1="0" y2="1">
      <stop offset="0" stop-color="#e5d7c8"/>
      <stop offset=".45" stop-color="#bfc7ca"/>
      <stop offset="1" stop-color="#5e6570"/>
    </linearGradient>
    <linearGradient id="shirt" x1="0" x2="1" y1="0" y2="1">
      <stop offset="0" stop-color="#c5dbef"/>
      <stop offset=".55" stop-color="#8fb0d1"/>
      <stop offset="1" stop-color="#58789b"/>
    </linearGradient>
    <radialGradient id="skin" cx=".48" cy=".34" r=".58">
      <stop offset="0" stop-color="#f4c5a2"/>
      <stop offset=".72" stop-color="#c98c66"/>
      <stop offset="1" stop-color="#9a6045"/>
    </radialGradient>
    <radialGradient id="hair" cx=".42" cy=".24" r=".58">
      <stop offset="0" stop-color="#4a3325"/>
      <stop offset=".62" stop-color="#241712"/>
      <stop offset="1" stop-color="#120b08"/>
    </radialGradient>
    <filter id="softShadow" x="-20%" y="-20%" width="140%" height="140%">
      <feDropShadow dx="0" dy="26" stdDeviation="24" flood-color="#1b2230" flood-opacity=".32"/>
    </filter>
    <filter id="grain">
      <feTurbulence type="fractalNoise" baseFrequency=".9" numOctaves="2" stitchTiles="stitch"/>
      <feColorMatrix type="saturate" values="0"/>
      <feComponentTransfer>
        <feFuncA type="table" tableValues="0 .045"/>
      </feComponentTransfer>
      <feBlend mode="soft-light" in2="SourceGraphic"/>
    </filter>
  </defs>
  <rect width="720" height="880" rx="48" fill="url(#room)"/>
  <g opacity=".5" filter="url(#grain)">
    <rect width="720" height="880" rx="48" fill="#fff"/>
  </g>
  <path d="M0 215 C130 120 245 118 365 178 C482 236 590 222 720 145 L720 0 L0 0 Z" fill="#f3e4d2" opacity=".52"/>
  <path d="M116 227 C210 170 331 162 438 202 C541 240 624 228 720 182 L720 302 C588 350 456 362 318 315 C203 276 103 295 0 370 L0 286 C37 260 75 241 116 227 Z" fill="#20242b" opacity=".72"/>
  <path d="M0 352 C126 292 238 283 358 330 C482 379 598 363 720 312 L720 452 C583 509 451 522 317 466 C203 419 96 430 0 493 Z" fill="#f1f1ed" opacity=".88"/>
  <path d="M0 543 C154 488 302 481 435 538 C542 584 631 577 720 548 L720 880 L0 880 Z" fill="#8b817b" opacity=".92"/>
  <g filter="url(#softShadow)">
    <path d="M184 739 C194 589 262 506 362 506 C463 506 531 593 542 739 Z" fill="url(#shirt)"/>
    <path d="M216 738 C220 642 278 574 362 574 C446 574 503 642 508 738 Z" fill="#789ec3" opacity=".65"/>
    <path d="M230 560 L301 510 L362 594 L424 510 L494 560 L447 641 L362 602 L276 641 Z" fill="#c9def1"/>
    <path d="M296 526 C309 563 329 585 362 594 C394 585 416 563 428 526 C405 542 385 550 362 550 C337 550 318 542 296 526 Z" fill="#d8e8f5"/>
    <ellipse cx="362" cy="338" rx="147" ry="167" fill="url(#skin)"/>
    <path d="M226 333 C202 298 203 245 231 205 C251 177 283 168 317 175 C356 123 452 135 502 185 C535 218 540 271 523 320 C491 284 459 263 417 258 C361 252 303 263 226 333 Z" fill="url(#hair)"/>
    <circle cx="265" cy="216" r="44" fill="#23140f"/>
    <circle cx="315" cy="178" r="53" fill="#2e1d16"/>
    <circle cx="375" cy="163" r="58" fill="#2b1a13"/>
    <circle cx="438" cy="183" r="49" fill="#25160f"/>
    <circle cx="493" cy="233" r="39" fill="#1b100b"/>
    <circle cx="221" cy="368" r="27" fill="#bd7f5f"/>
    <circle cx="503" cy="368" r="27" fill="#bd7f5f"/>
    <ellipse cx="309" cy="346" rx="21" ry="25" fill="#171419"/>
    <ellipse cx="416" cy="346" rx="21" ry="25" fill="#171419"/>
    <circle cx="316" cy="338" r="7" fill="#fff"/>
    <circle cx="423" cy="338" r="7" fill="#fff"/>
    <path d="M347 374 C340 400 346 413 366 413" fill="none" stroke="#9b6148" stroke-width="10" stroke-linecap="round"/>
    <path d="M297 442 C334 483 392 484 430 442" fill="#fff" stroke="#7c3f33" stroke-width="9" stroke-linejoin="round"/>
    <path d="M287 309 C310 293 335 295 354 309" fill="none" stroke="#23140f" stroke-width="11" stroke-linecap="round"/>
    <path d="M391 309 C414 293 440 295 459 309" fill="none" stroke="#23140f" stroke-width="11" stroke-linecap="round"/>
    <path d="M250 677 L206 875 L519 875 L475 676 Z" fill="#82a6c9"/>
  </g>
  <rect x="4" y="4" width="712" height="872" rx="44" fill="none" stroke="#ffffff" stroke-opacity=".7" stroke-width="8"/>
</svg>
